<svg width="20" height="20" viewBox="0 0 20 20" fill="none" xmlns="http://www.w3.org/2000/svg">
<path d="M11.8708 7.65671C11.7596 7.34173 11.5533 7.069 11.2805 6.87613C11.0077 6.68326 10.6817 6.57975 10.3476 6.57988H9.09714C8.74041 6.57801 8.39566 6.70843 8.12955 6.94591C7.86344 7.18339 7.69488 7.51106 7.65647 7.86556C7.61806 8.22007 7.71252 8.57621 7.92159 8.86513C8.13066 9.15406 8.43949 9.35522 8.78835 9.42974L10.6924 9.84497C11.0817 9.93017 11.4258 10.1562 11.6585 10.4795C11.8913 10.8029 11.9963 11.2008 11.9533 11.5969C11.9104 11.9929 11.7226 12.3591 11.4259 12.6251C11.1293 12.8912 10.7447 13.0382 10.3462 13.0381H9.27024C8.56679 13.0381 7.96859 12.5896 7.74703 11.9626M9.8089 6.57988V4.96463M9.8089 14.6533V13.0395M3.07355 18.9939V15.5336H6.53538" stroke="#011E2D" stroke-width="1.71429" stroke-linecap="round" stroke-linejoin="round"/>
<path d="M18.8457 8.34462C19.2133 10.3034 18.9198 12.3288 18.0113 14.1028C17.1027 15.8768 15.6306 17.2991 13.8259 18.1464C12.0212 18.9937 9.98606 19.2181 8.03999 18.7843C6.09393 18.3505 4.34706 17.283 3.07356 15.7496M1.15431 11.6554C0.786701 9.69659 1.0802 7.67123 1.98874 5.89719C2.89728 4.12315 4.36943 2.70087 6.17414 1.85357C7.97885 1.00627 10.0139 0.781918 11.96 1.21573C13.9061 1.64954 15.6529 2.71696 16.9264 4.25045" stroke="#011E2D" stroke-width="1.71429" stroke-linecap="round" stroke-linejoin="round"/>
<path d="M16.9264 1.00612V4.46637H13.4646" stroke="#011E2D" stroke-width="1.71429" stroke-linecap="round" stroke-linejoin="round"/>
</svg>
