<svg width="14" height="19" viewBox="0 0 14 19" fill="none" xmlns="http://www.w3.org/2000/svg">
<path d="M11.3535 8.85352C11.4446 8.75922 11.495 8.63292 11.4939 8.50182C11.4927 8.37072 11.4401 8.24532 11.3474 8.15261C11.2547 8.05991 11.1293 8.00732 10.9982 8.00618C10.8671 8.00504 10.7408 8.05544 10.6465 8.14652L7.00002 11.793L5.35352 10.1465C5.25922 10.0554 5.13292 10.005 5.00182 10.0062C4.87072 10.0073 4.74532 10.0599 4.65261 10.1526C4.55991 10.2453 4.50732 10.3707 4.50618 10.5018C4.50504 10.6329 4.55544 10.7592 4.64652 10.8535L7.00002 13.207L11.3535 8.85352Z" fill="#011E2D"/>
<path fill-rule="evenodd" clip-rule="evenodd" d="M14 5V15.5C14 15.8978 13.842 16.2794 13.5607 16.5607C13.2794 16.842 12.8978 17 12.5 17H3.5C3.10218 17 2.72064 16.842 2.43934 16.5607C2.15804 16.2794 2 15.8978 2 15.5V1.5C2 1.10218 2.15804 0.720644 2.43934 0.43934C2.72064 0.158035 3.10218 0 3.5 0H9L14 5ZM9 5.5C8.86739 5.5 8.74021 5.44732 8.64645 5.35355C8.55268 5.25979 8.5 5.13261 8.5 5V1H3.5C3.36739 1 3.24021 1.05268 3.14645 1.14645C3.05268 1.24021 3 1.36739 3 1.5V15.5C3 15.6326 3.05268 15.7598 3.14645 15.8536C3.24021 15.9473 3.36739 16 3.5 16H12.5C12.6326 16 12.7598 15.9473 12.8536 15.8536C12.9473 15.7598 13 15.6326 13 15.5V5.5H9ZM9.5 1.914L12.086 4.5H9.5V1.914Z" fill="#011E2D"/>
<path d="M1 3V16.5C1 16.8978 1.15804 17.2794 1.43934 17.5607C1.72064 17.842 2.10218 18 2.5 18H12V19H2.5C1.83696 19 1.20107 18.7366 0.732233 18.2678C0.263392 17.7989 0 17.163 0 16.5V3H1Z" fill="#011E2D"/>
</svg>
