<svg width="16" height="16" viewBox="0 0 16 16" fill="none" xmlns="http://www.w3.org/2000/svg">
<g clip-path="url(#clip0_4472_47634)">
<path d="M8.00003 14.6666C8.73337 14.6666 9.33337 14.0666 9.33337 13.3333H6.6667C6.6667 14.0666 7.26003 14.6666 8.00003 14.6666ZM12 10.6666V7.33329C12 5.28663 10.9067 3.57329 9.00003 3.11996V2.66663C9.00003 2.11329 8.55337 1.66663 8.00003 1.66663C7.4467 1.66663 7.00003 2.11329 7.00003 2.66663V3.11996C5.0867 3.57329 4.00003 5.27996 4.00003 7.33329V10.6666L3.14003 11.5266C2.72003 11.9466 3.01337 12.6666 3.6067 12.6666H12.3867C12.98 12.6666 13.28 11.9466 12.86 11.5266L12 10.6666Z" fill="white"/>
</g>
<defs>
<clipPath id="clip0_4472_47634">
<rect width="16" height="16" fill="white"/>
</clipPath>
</defs>
</svg>
