<svg width="18" height="18" viewBox="0 0 18 18" fill="none" xmlns="http://www.w3.org/2000/svg">
<path d="M11.8125 0L18 3.11965V10.0768L16.875 9.5096V4.387L12.375 6.65583V8.94239L11.25 9.5096V6.65583L6.75 4.387V6.39882L5.625 5.83161V3.11965L11.8125 0ZM11.8125 5.67208L13.3682 4.88331L9.29883 2.53471L7.44434 3.47415L11.8125 5.67208ZM14.5811 4.28065L16.1807 3.47415L11.8125 1.26736L10.5029 1.93205L14.5811 4.28065ZM10.125 10.0768L9 10.644V10.6352L5.625 12.3368V16.3693L9 14.6588V15.935L5.0625 17.9202L0 15.3589V9.3678L5.0625 6.81536L10.125 9.3678V10.0768ZM4.5 16.3693V12.3368L1.125 10.6352V14.6588L4.5 16.3693ZM5.0625 11.353L8.30566 9.7223L5.0625 8.08272L1.81934 9.7223L5.0625 11.353ZM10.125 11.3442L14.0625 9.35894L18 11.3442V16.0148L14.0625 18L10.125 16.0148V11.3442ZM13.5 16.449V13.7459L11.25 12.6115V15.3146L13.5 16.449ZM16.875 15.3146V12.6115L14.625 13.7459V16.449L16.875 15.3146ZM14.0625 12.7622L16.1807 11.6898L14.0625 10.6263L11.9443 11.6898L14.0625 12.7622Z" fill="white"/>
</svg>
