<svg width="18" height="18" viewBox="0 0 18 18" fill="none" xmlns="http://www.w3.org/2000/svg">
<path d="M3.375 2.76923C3.375 2.3408 3.54094 1.92992 3.83631 1.62698C4.13168 1.32404 4.53228 1.15385 4.95 1.15385C5.36772 1.15385 5.76832 1.32404 6.06369 1.62698C6.35906 1.92992 6.525 2.3408 6.525 2.76923C6.525 3.19766 6.35906 3.60854 6.06369 3.91148C5.76832 4.21442 5.36772 4.38462 4.95 4.38462C4.53228 4.38462 4.13168 4.21442 3.83631 3.91148C3.54094 3.60854 3.375 3.19766 3.375 2.76923ZM4.95 0C4.59543 -5.41896e-09 4.24433 0.0716282 3.91675 0.210795C3.58918 0.349962 3.29153 0.553942 3.04081 0.811089C2.79009 1.06824 2.59121 1.37351 2.45552 1.70949C2.31984 2.04547 2.25 2.40557 2.25 2.76923C2.25 3.13289 2.31984 3.49299 2.45552 3.82897C2.59121 4.16495 2.79009 4.47023 3.04081 4.72737C3.29153 4.98452 3.58918 5.1885 3.91675 5.32767C4.24433 5.46683 4.59543 5.53846 4.95 5.53846C5.66608 5.53846 6.35284 5.2467 6.85919 4.72737C7.36554 4.20804 7.65 3.50368 7.65 2.76923C7.65 2.03479 7.36554 1.33042 6.85919 0.811089C6.35284 0.291757 5.66608 1.09441e-08 4.95 0ZM11.475 2.76923C11.475 2.3408 11.6409 1.92992 11.9363 1.62698C12.2317 1.32404 12.6323 1.15385 13.05 1.15385C13.4677 1.15385 13.8683 1.32404 14.1637 1.62698C14.4591 1.92992 14.625 2.3408 14.625 2.76923C14.625 3.19766 14.4591 3.60854 14.1637 3.91148C13.8683 4.21442 13.4677 4.38462 13.05 4.38462C12.6323 4.38462 12.2317 4.21442 11.9363 3.91148C11.6409 3.60854 11.475 3.19766 11.475 2.76923ZM13.05 0C12.6954 -5.41896e-09 12.3443 0.0716282 12.0168 0.210795C11.6892 0.349962 11.3915 0.553942 11.1408 0.811089C10.8901 1.06824 10.6912 1.37351 10.5555 1.70949C10.4198 2.04547 10.35 2.40557 10.35 2.76923C10.35 3.13289 10.4198 3.49299 10.5555 3.82897C10.6912 4.16495 10.8901 4.47023 11.1408 4.72737C11.3915 4.98452 11.6892 5.1885 12.0168 5.32767C12.3443 5.46683 12.6954 5.53846 13.05 5.53846C13.7661 5.53846 14.4528 5.2467 14.9592 4.72737C15.4655 4.20804 15.75 3.50368 15.75 2.76923C15.75 2.03479 15.4655 1.33042 14.9592 0.811089C14.4528 0.291757 13.7661 1.09441e-08 13.05 0ZM0 8.052C0 7.84314 0.04011 7.63632 0.11804 7.44336C0.19597 7.25039 0.310194 7.07506 0.45419 6.92737C0.598185 6.77969 0.769133 6.66253 0.957273 6.58261C1.14541 6.50268 1.34706 6.46154 1.5507 6.46154H5.8815C5.67961 6.81922 5.53812 7.20933 5.463 7.61538H1.5507C1.4948 7.61538 1.43944 7.62668 1.38779 7.64862C1.33614 7.67056 1.28921 7.70272 1.24968 7.74327C1.21015 7.78381 1.1788 7.83194 1.1574 7.88491C1.13601 7.93789 1.125 7.99466 1.125 8.052V8.25C1.125 8.37462 1.12635 9.14215 1.58355 9.86769C1.98675 10.5083 2.8089 11.2154 4.59135 11.2994C4.12706 11.5153 3.73962 11.8739 3.48255 12.3254C2.03265 12.0337 1.15155 11.3086 0.63855 10.494C5.36442e-08 9.48 0 8.43231 0 8.25092V8.052ZM13.4087 11.2994C13.8729 11.5153 14.2604 11.8739 14.5175 12.3254C15.9674 12.0337 16.8484 11.3086 17.3615 10.494C18 9.48 18 8.43231 18 8.25092V8.05246C18.0001 7.84356 17.96 7.63669 17.8821 7.44368C17.8042 7.25066 17.69 7.07527 17.546 6.92754C17.402 6.7798 17.231 6.66261 17.0428 6.58265C16.8547 6.50269 16.653 6.46154 16.4493 6.46154H12.1185C12.3165 6.81369 12.4605 7.20231 12.537 7.61538H16.4493C16.6842 7.61538 16.875 7.81108 16.875 8.052V8.25C16.875 8.37462 16.8736 9.14215 16.4164 9.86769C16.0132 10.5083 15.1911 11.2154 13.4087 11.2994ZM9 6.69231C8.58228 6.69231 8.18168 6.8625 7.88631 7.16544C7.59094 7.46839 7.425 7.87927 7.425 8.30769C7.425 8.73612 7.59094 9.147 7.88631 9.44994C8.18168 9.75289 8.58228 9.92308 9 9.92308C9.41772 9.92308 9.81832 9.75289 10.1137 9.44994C10.4091 9.147 10.575 8.73612 10.575 8.30769C10.575 7.87927 10.4091 7.46839 10.1137 7.16544C9.81832 6.8625 9.41772 6.69231 9 6.69231ZM6.3 8.30769C6.3 7.57325 6.58446 6.86888 7.09081 6.34955C7.59716 5.83022 8.28392 5.53846 9 5.53846C9.71608 5.53846 10.4028 5.83022 10.9092 6.34955C11.4155 6.86888 11.7 7.57325 11.7 8.30769C11.7 9.04214 11.4155 9.7465 10.9092 10.2658C10.4028 10.7852 9.71608 11.0769 9 11.0769C8.28392 11.0769 7.59716 10.7852 7.09081 10.2658C6.58446 9.7465 6.3 9.04214 6.3 8.30769ZM4.05 13.5905C4.05 13.1686 4.21338 12.7641 4.50419 12.4658C4.795 12.1676 5.18943 12 5.6007 12H12.3993C12.8106 12 13.205 12.1676 13.4958 12.4658C13.7866 12.7641 13.95 13.1686 13.95 13.5905V13.7894C13.95 13.9712 13.95 15.0185 13.3115 16.0325C12.6441 17.0922 11.3548 18 9 18C6.64515 18 5.3559 17.0922 4.68855 16.0325C4.05 15.0185 4.05 13.9708 4.05 13.7894V13.5905ZM5.6007 13.1538C5.4878 13.1538 5.37952 13.1998 5.29968 13.2817C5.21985 13.3636 5.175 13.4747 5.175 13.5905V13.7885C5.175 13.9131 5.17635 14.6806 5.63355 15.4062C6.06285 16.0883 6.96735 16.8462 9 16.8462C11.0326 16.8462 11.9372 16.0883 12.3665 15.4062C12.8237 14.6806 12.825 13.9131 12.825 13.7885V13.5905C12.825 13.4747 12.7801 13.3636 12.7003 13.2817C12.6205 13.1998 12.5122 13.1538 12.3993 13.1538H5.6007Z" fill="#011E2D"/>
</svg>
